<?xml version="1.0" encoding="utf-8" ?>
<svg
  xmlns="http://www.w3.org/2000/svg"
  xmlns:xlink="http://www.w3.org/1999/xlink"
  style="margin: auto; background: none; display: block; shape-rendering: auto;"
  width="100px"
  height="100px"
  viewBox="0 0 100 100"
  preserveAspectRatio="xMidYMid"
>
<path
    fill="none"
    stroke="#ffffff"
    stroke-opacity="10%"
    stroke-width="8"
    stroke-dasharray="256.58892822265625 0"
    d="M24.3 30C11.4 30 5 43.3 5 50s6.4 20 19.3 20c19.3 0 32.1-40 51.4-40 C88.6 30 95 43.3 95 50s-6.4 20-19.3 20C56.4 70 43.6 30 24.3 30z"
    stroke-linecap="round"
    stroke-dashoffset="0px"
    style="transform-origin:50px 50px;transform:matrix(0.8, 0, 0, 0.8, 0, 0);animation-play-state:paused"
  />
<path
    stroke="#ffffff"
    stroke-width="8"
    fill="none"
    stroke-dasharray="135.9921319580078 120.59679626464845"
    d="M24.3 30C11.4 30 5 43.3 5 50s6.4 20 19.3 20c19.3 0 32.1-40 51.4-40 C88.6 30 95 43.3 95 50s-6.4 20-19.3 20C56.4 70 43.6 30 24.3 30z"
    stroke-linecap="round"
    style="transform:scale(0.8);transform-origin:50px 50px"
  >
  <animate
      attributeName="stroke-dashoffset"
      repeatCount="indefinite"
      dur="3.0303030303030303s"
      keyTimes="0;1"
      values="0;256.58892822265625"
    />
</path>
<!-- [ldio] generated by https://loading.io/ --></svg>
